<svg xmlns="http://www.w3.org/2000/svg" viewBox="0 0 600 430"><rect width="600" height="430" fill="#d9dad8"/><rect x="90" y="55" width="245" height="330" rx="25" fill="#111213"/><rect x="110" y="92" width="205" height="235" fill="#fff"/><path d="M135 125h155v95H135z" fill="#9d1e25"/><path d="m160 190 30-35 26 23 27-40 25 52" fill="none" stroke="#fff" stroke-width="10"/><path d="M140 250h145v13H140zm0 30h105v13H140z" fill="#606568"/><circle cx="213" cy="355" r="10" fill="#fff"/><path d="M380 115h130v80H380zM400 195l20 34 20-34" fill="#111213"/><path d="M415 137h60v12h-60zm0 25h42v12h-42z" fill="#fff"/><path d="M390 285q55-90 110 0l-25 85h-60z" fill="#9d1e25"/><path d="m390 285-30-20m140 20 30-20" stroke="#111213" stroke-width="14"/></svg>
