<svg xmlns="http://www.w3.org/2000/svg" viewBox="0 0 600 430"><rect width="600" height="430" fill="#d9dad8"/><rect x="166" y="40" width="268" height="350" rx="28" fill="#111213"/><rect x="187" y="78" width="226" height="267" fill="#f7f7f4"/><circle cx="300" cy="367" r="11" fill="#fff"/><g fill="#9d1e25"><rect x="210" y="105" width="70" height="70" rx="9"/><circle cx="355" cy="140" r="35"/></g><g fill="#606568"><rect x="320" y="200" width="70" height="70" rx="9"/><rect x="210" y="200" width="70" height="70" rx="9"/></g><path d="M228 125h34v28h-34zm105 3h44v8h-44zm0 17h30v8h-30zM225 221h40v28h-40zm110 5 20-13 20 13v25h-40z" fill="#fff"/><path d="M90 250h80v95H90zM430 250h80v95h-80z" fill="#111213" opacity=".18"/></svg>
